<svg width="30" height="30" viewBox="0 0 30 30" fill="none" xmlns="http://www.w3.org/2000/svg">
<path d="M26.0833 0.75H3.91667C3.07681 0.75 2.27136 1.08363 1.6775 1.6775C1.08363 2.27136 0.75 3.07681 0.75 3.91667V26.0833C0.75 26.9232 1.08363 27.7286 1.6775 28.3225C2.27136 28.9164 3.07681 29.25 3.91667 29.25H26.0833C26.9232 29.25 27.7286 28.9164 28.3225 28.3225C28.9164 27.7286 29.25 26.9232 29.25 26.0833V3.91667C29.25 3.07681 28.9164 2.27136 28.3225 1.6775C27.7286 1.08363 26.9232 0.75 26.0833 0.75ZM20.7 22.9167L15 17.2167L9.3 22.9167L7.08333 20.7L12.7833 15L7.08333 9.3L9.3 7.08333L15 12.7833L20.7 7.08333L22.9167 9.3L17.2167 15L22.9167 20.7L20.7 22.9167Z" fill="white"/>
</svg>
