<svg width="30" height="32" viewBox="0 0 30 32" fill="none" xmlns="http://www.w3.org/2000/svg">
<path d="M26.0833 3.33334H24.5V1.75001C24.5 0.879172 23.7875 0.166672 22.9167 0.166672C22.0458 0.166672 21.3333 0.879172 21.3333 1.75001V3.33334H8.66667V1.75001C8.66667 0.879172 7.95417 0.166672 7.08333 0.166672C6.2125 0.166672 5.5 0.879172 5.5 1.75001V3.33334H3.91667C2.15917 3.33334 0.765833 4.75834 0.765833 6.5L0.75 28.6667C0.75 29.5065 1.08363 30.312 1.6775 30.9058C2.27136 31.4997 3.07681 31.8333 3.91667 31.8333H26.0833C27.825 31.8333 29.25 30.4083 29.25 28.6667V6.5C29.25 4.75834 27.825 3.33334 26.0833 3.33334ZM26.0833 27.0833C26.0833 27.9542 25.3708 28.6667 24.5 28.6667H5.5C4.62917 28.6667 3.91667 27.9542 3.91667 27.0833V11.25H26.0833V27.0833ZM7.08333 14.4167H10.25V17.5833H7.08333V14.4167ZM13.4167 14.4167H16.5833V17.5833H13.4167V14.4167ZM19.75 14.4167H22.9167V17.5833H19.75V14.4167Z" fill="#545454"/>
</svg>
