<svg width="21" height="21" viewBox="0 0 21 21" fill="none" xmlns="http://www.w3.org/2000/svg">
<path d="M15.3462 0.453125H5.65385C4.15484 0.454638 2.7177 1.01701 1.65774 2.01684C0.59779 3.01666 0.0016035 4.37229 0 5.78626V14.9288C0.0016035 16.3428 0.59779 17.6984 1.65774 18.6982C2.7177 19.698 4.15484 20.2604 5.65385 20.2619H15.3462C16.8452 20.2604 18.2823 19.698 19.3423 18.6982C20.4022 17.6984 20.9984 16.3428 21 14.9288V5.78626C20.9984 4.37229 20.4022 3.01666 19.3423 2.01684C18.2823 1.01701 16.8452 0.454638 15.3462 0.453125ZM10.5 14.9288C9.54152 14.9288 8.60457 14.6607 7.80762 14.1584C7.01067 13.6561 6.38953 12.9422 6.02274 12.1069C5.65594 11.2716 5.55997 10.3525 5.74696 9.46571C5.93395 8.57898 6.3955 7.76446 7.07325 7.12515C7.751 6.48585 8.6145 6.05048 9.55456 5.8741C10.4946 5.69771 11.469 5.78824 12.3545 6.13423C13.2401 6.48022 13.9969 7.06613 14.5294 7.81787C15.0619 8.56961 15.3462 9.45341 15.3462 10.3575C15.3448 11.5695 14.8338 12.7315 13.9253 13.5885C13.0167 14.4455 11.7849 14.9275 10.5 14.9288ZM16.5577 5.78626C16.3181 5.78626 16.0838 5.71924 15.8846 5.59366C15.6854 5.46809 15.5301 5.28961 15.4384 5.08078C15.3467 4.87196 15.3227 4.64218 15.3694 4.42049C15.4162 4.19881 15.5316 3.99518 15.701 3.83535C15.8704 3.67553 16.0863 3.56669 16.3213 3.52259C16.5563 3.4785 16.7999 3.50113 17.0213 3.58762C17.2427 3.67412 17.4319 3.8206 17.565 4.00853C17.6982 4.19647 17.7692 4.41742 17.7692 4.64345C17.7692 4.94654 17.6416 5.23722 17.4144 5.45154C17.1872 5.66586 16.879 5.78626 16.5577 5.78626ZM13.7308 10.3575C13.7308 10.9603 13.5413 11.5495 13.1863 12.0506C12.8313 12.5518 12.3267 12.9424 11.7364 13.1731C11.146 13.4037 10.4964 13.4641 9.86971 13.3465C9.243 13.2289 8.66733 12.9386 8.2155 12.5124C7.76367 12.0862 7.45597 11.5432 7.33131 10.9521C7.20665 10.3609 7.27063 9.74815 7.51516 9.19129C7.75969 8.63443 8.17378 8.15848 8.70508 7.82361C9.23638 7.48875 9.86101 7.31002 10.5 7.31002C11.3569 7.31002 12.1786 7.63109 12.7845 8.20261C13.3904 8.77413 13.7308 9.54927 13.7308 10.3575Z" fill="white"/>
</svg>
