<svg width="49" height="49" viewBox="0 0 49 49" fill="none" xmlns="http://www.w3.org/2000/svg">
<rect width="49" height="49" rx="10" fill="#E8A701"/>
<path d="M22.875 32.3001L16.275 25.7001C16.175 25.6001 16.104 25.4917 16.062 25.3751C16.02 25.2584 15.9993 25.1334 16 25.0001C16 24.8667 16.021 24.7417 16.063 24.6251C16.105 24.5084 16.1757 24.4001 16.275 24.3001L22.875 17.7001C23.0583 17.5167 23.2877 17.4211 23.563 17.4131C23.8383 17.4051 24.0757 17.5007 24.275 17.7001C24.475 17.8834 24.5793 18.1127 24.588 18.3881C24.5967 18.6634 24.5007 18.9007 24.3 19.1001L19.4 24.0001H30.575C30.8583 24.0001 31.096 24.0961 31.288 24.2881C31.48 24.4801 31.5757 24.7174 31.575 25.0001C31.575 25.2834 31.4793 25.5211 31.288 25.7131C31.0967 25.9051 30.859 26.0007 30.575 26.0001H19.4L24.3 30.9001C24.4833 31.0834 24.5793 31.3167 24.588 31.6001C24.5967 31.8834 24.5007 32.1167 24.3 32.3001C24.1167 32.5001 23.8833 32.6001 23.6 32.6001C23.3167 32.6001 23.075 32.5001 22.875 32.3001Z" fill="black"/>
</svg>
