<svg width="49" height="49" viewBox="0 0 49 49" fill="none" xmlns="http://www.w3.org/2000/svg">
<rect width="49" height="49" rx="10" transform="matrix(-1 0 0 1 49 0)" fill="#E8A701"/>
<path d="M26.125 32.3001L32.725 25.7001C32.825 25.6001 32.896 25.4917 32.938 25.3751C32.98 25.2584 33.0007 25.1334 33 25.0001C33 24.8667 32.979 24.7417 32.937 24.6251C32.895 24.5084 32.8243 24.4001 32.725 24.3001L26.125 17.7001C25.9417 17.5167 25.7123 17.4211 25.437 17.4131C25.1617 17.4051 24.9243 17.5007 24.725 17.7001C24.525 17.8834 24.4207 18.1127 24.412 18.3881C24.4033 18.6634 24.4993 18.9007 24.7 19.1001L29.6 24.0001H18.425C18.1417 24.0001 17.904 24.0961 17.712 24.2881C17.52 24.4801 17.4243 24.7174 17.425 25.0001C17.425 25.2834 17.5207 25.5211 17.712 25.7131C17.9033 25.9051 18.141 26.0007 18.425 26.0001H29.6L24.7 30.9001C24.5167 31.0834 24.4207 31.3167 24.412 31.6001C24.4033 31.8834 24.4993 32.1167 24.7 32.3001C24.8833 32.5001 25.1167 32.6001 25.4 32.6001C25.6833 32.6001 25.925 32.5001 26.125 32.3001Z" fill="black"/>
</svg>
