<svg width="16" height="18" viewBox="0 0 16 18" fill="none" xmlns="http://www.w3.org/2000/svg">
<path d="M16 5.43249V8.55054C16 8.71593 15.9352 8.87455 15.8198 8.9915C15.7044 9.10845 15.5478 9.17415 15.3846 9.17415C14.0991 9.17717 12.832 8.86393 11.6923 8.26134V11.3568C11.6923 12.928 11.0764 14.4349 9.98001 15.5459C8.88364 16.6569 7.39665 17.2811 5.84615 17.2811C4.29566 17.2811 2.80867 16.6569 1.7123 15.5459C0.615932 14.4349 0 12.928 0 11.3568C0 8.48038 2.07 5.93761 4.81538 5.44184C4.90395 5.42589 4.99489 5.4298 5.0818 5.45332C5.16871 5.47683 5.24948 5.51936 5.31842 5.57792C5.38735 5.63649 5.44278 5.70965 5.4808 5.79227C5.51882 5.87488 5.5385 5.96494 5.53846 6.0561V9.38384C5.5385 9.50186 5.50549 9.61747 5.44326 9.71724C5.38103 9.817 5.29214 9.89682 5.18692 9.94742C4.93818 10.067 4.72565 10.252 4.5715 10.4831C4.41735 10.7142 4.32722 10.983 4.31052 11.2615C4.29383 11.54 4.35117 11.8179 4.47657 12.0662C4.60197 12.3146 4.79084 12.5243 5.02346 12.6735C5.25609 12.8226 5.52396 12.9058 5.79912 12.9144C6.07429 12.9229 6.34668 12.8564 6.58786 12.7219C6.82905 12.5874 7.03021 12.3898 7.17035 12.1497C7.3105 11.9096 7.38449 11.6358 7.38462 11.3568V1.06721C7.38462 0.901822 7.44945 0.743204 7.56486 0.626255C7.68026 0.509305 7.83679 0.443604 8 0.443604H11.0769C11.2401 0.443604 11.3967 0.509305 11.5121 0.626255C11.6275 0.743204 11.6923 0.901822 11.6923 1.06721C11.6933 2.05925 12.0827 3.01035 12.7749 3.71183C13.4671 4.4133 14.4057 4.80784 15.3846 4.80888C15.5478 4.80888 15.7044 4.87458 15.8198 4.99153C15.9352 5.10848 16 5.26709 16 5.43249Z" fill="white"/>
</svg>
