<svg width="206" height="37" viewBox="0 0 206 37" fill="none" xmlns="http://www.w3.org/2000/svg">
<path d="M8.34091 1.09091L16.7784 27.6136H17.1023L25.5568 1.09091H33.7386L21.7045 36H12.1932L0.142046 1.09091H8.34091ZM39.3168 36H31.4077L43.4588 1.09091H52.9702L65.0043 36H57.0952L48.3509 9.06818H48.0781L39.3168 36ZM38.8224 22.2784H57.5043V28.0398H38.8224V22.2784ZM98.3665 13.3125H90.9006C90.7642 12.3466 90.4858 11.4886 90.0653 10.7386C89.6449 9.97727 89.1051 9.32954 88.446 8.79545C87.7869 8.26136 87.0256 7.85227 86.1619 7.56818C85.3097 7.28409 84.3835 7.14205 83.3835 7.14205C81.5767 7.14205 80.0028 7.59091 78.6619 8.48864C77.321 9.375 76.2813 10.6705 75.5426 12.375C74.804 14.0682 74.4347 16.125 74.4347 18.5455C74.4347 21.0341 74.804 23.125 75.5426 24.8182C76.2926 26.5114 77.3381 27.7898 78.679 28.6534C80.0199 29.517 81.571 29.9489 83.3324 29.9489C84.321 29.9489 85.2358 29.8182 86.0767 29.5568C86.929 29.2955 87.6847 28.9148 88.3438 28.4148C89.0028 27.9034 89.5483 27.2841 89.9801 26.5568C90.4233 25.8295 90.7301 25 90.9006 24.0682L98.3665 24.1023C98.1733 25.7045 97.6903 27.25 96.9176 28.7386C96.1563 30.2159 95.1278 31.5398 93.8324 32.7102C92.5483 33.8693 91.0142 34.7898 89.2301 35.4716C87.4574 36.142 85.4517 36.4773 83.2131 36.4773C80.0994 36.4773 77.3153 35.7727 74.8608 34.3636C72.4176 32.9545 70.4858 30.9148 69.0653 28.2443C67.6562 25.5739 66.9517 22.3409 66.9517 18.5455C66.9517 14.7386 67.6676 11.5 69.0994 8.82955C70.5313 6.15909 72.4744 4.125 74.929 2.72727C77.3835 1.31818 80.1449 0.613635 83.2131 0.613635C85.2358 0.613635 87.1108 0.897726 88.8381 1.46591C90.5767 2.03409 92.1165 2.86364 93.4574 3.95454C94.7983 5.03409 95.8892 6.35795 96.7301 7.92614C97.5824 9.49432 98.1278 11.2898 98.3665 13.3125ZM109.02 36H101.111L113.162 1.09091H122.673L134.707 36H126.798L118.054 9.06818H117.781L109.02 36ZM108.526 22.2784H127.207V28.0398H108.526V22.2784ZM133.301 1.09091H141.568L149.528 16.125H149.869L157.83 1.09091H166.097L153.364 23.6591V36H146.034V23.6591L133.301 1.09091Z" fill="white"/>
<path d="M191.776 17.2841L185.128 17.6932C185.014 17.125 184.77 16.6136 184.395 16.1591C184.02 15.6932 183.526 15.3239 182.912 15.0511C182.31 14.767 181.588 14.625 180.747 14.625C179.622 14.625 178.673 14.8636 177.901 15.3409C177.128 15.8068 176.741 16.4318 176.741 17.2159C176.741 17.8409 176.991 18.3693 177.491 18.8011C177.991 19.233 178.849 19.5795 180.065 19.8409L184.804 20.7955C187.349 21.3182 189.247 22.1591 190.497 23.3182C191.747 24.4773 192.372 26 192.372 27.8864C192.372 29.6023 191.866 31.108 190.855 32.4034C189.855 33.6989 188.48 34.7102 186.73 35.4375C184.991 36.1534 182.986 36.5114 180.713 36.5114C177.247 36.5114 174.486 35.7898 172.429 34.3466C170.384 32.892 169.185 30.9148 168.832 28.4148L175.974 28.0398C176.19 29.0966 176.713 29.9034 177.543 30.4602C178.372 31.0057 179.435 31.2784 180.73 31.2784C182.003 31.2784 183.026 31.0341 183.798 30.5455C184.582 30.0455 184.98 29.4034 184.991 28.6193C184.98 27.9602 184.702 27.4205 184.156 27C183.611 26.5682 182.77 26.2386 181.634 26.0114L177.099 25.108C174.543 24.5966 172.639 23.7102 171.389 22.4489C170.151 21.1875 169.531 19.5795 169.531 17.625C169.531 15.9432 169.986 14.4943 170.895 13.2784C171.815 12.0625 173.105 11.125 174.764 10.4659C176.435 9.80682 178.389 9.47727 180.628 9.47727C183.935 9.47727 186.537 10.1761 188.435 11.5739C190.344 12.9716 191.457 14.875 191.776 17.2841ZM201.189 36.4432C200.064 36.4432 199.098 36.0455 198.291 35.25C197.496 34.4432 197.098 33.4773 197.098 32.3523C197.098 31.2386 197.496 30.2841 198.291 29.4886C199.098 28.6932 200.064 28.2955 201.189 28.2955C202.28 28.2955 203.234 28.6932 204.053 29.4886C204.871 30.2841 205.28 31.2386 205.28 32.3523C205.28 33.1023 205.087 33.7898 204.7 34.4148C204.325 35.0284 203.831 35.5227 203.217 35.8977C202.604 36.2614 201.928 36.4432 201.189 36.4432Z" fill="#E8A701"/>
</svg>
