<svg width="24" height="30" viewBox="0 0 24 30" fill="none" xmlns="http://www.w3.org/2000/svg">
<path d="M12 15C12.7792 15 13.4464 14.7223 14.0018 14.167C14.5571 13.6117 14.8343 12.9449 14.8334 12.1667C14.8334 11.3875 14.5557 10.7202 14.0004 10.1649C13.445 9.60958 12.7782 9.33238 12 9.33333C11.2209 9.33333 10.5536 9.611 9.99827 10.1663C9.44294 10.7217 9.16574 11.3884 9.16669 12.1667C9.16669 12.9458 9.44435 13.6131 9.99969 14.1684C10.555 14.7237 11.2218 15.0009 12 15ZM12 29.1667C8.19863 25.9319 5.35963 22.9277 3.48302 20.1538C1.60641 17.38 0.667631 14.8121 0.666687 12.45C0.666687 8.90833 1.80616 6.0868 4.0851 3.98541C6.36405 1.88402 9.00235 0.833328 12 0.833328C14.9986 0.833328 17.6374 1.88402 19.9164 3.98541C22.1953 6.0868 23.3343 8.90833 23.3334 12.45C23.3334 14.8111 22.3946 17.3791 20.517 20.1538C18.6395 22.9286 15.8005 25.9329 12 29.1667Z" fill="#545454"/>
</svg>
